<svg xmlns:gliffy="http://www.gliffy.com" xmlns:x="http://ns.adobe.com/Extensibility/1.0/" xmlns:i="http://ns.adobe.com/AdobeIllustrator/10.0/" xmlns:graph="http://ns.adobe.com/Graphs/1.0/" xmlns:a="http://ns.adobe.com/AdobeSVGViewerExtensions/3.0/" xmlns="http://www.w3.org/2000/svg" xmlns:xlink="http://www.w3.org/1999/xlink" width="1033" height="658"><rect stroke="#000000" stroke-width="0" fill="#000000" x="0" y="0" width="1032" height="657"/><g transform='translate(10.149840562945997,8.9375) rotate(0 413.058737689437 313.125)'><rect width="826.117475378874" height="626.25" stroke="#ffffff" stroke-width="1" fill="#000000"/><g ></g></g><g transform='translate(32.60391763246025,373.8635548357671) rotate(0 297.0001240260238 116.59280936454851)'><rect width="594.0002480520476" height="233.18561872909703" stroke="#333333" stroke-width="1" fill="#666666"/><g  transform='translate(0.0,124.59280936454851)'><text x='297.0001240260238' style='text-anchor: middle' y='-3.0'><tspan xml:space='preserve' font-size='18' font-family='Courier' fill='#AAFF00' >&lt;</tspan><tspan xml:space='preserve' font-size='18' font-family='Courier' fill='#AAFF00' >iframe src=</tspan><tspan xml:space='preserve' font-size='18' font-family='Courier' fill='#AAFF00' >"</tspan><tspan xml:space='preserve' font-size='18' font-family='Courier' fill='#AAFF00' >http://my-domain.com/cors.html</tspan><tspan xml:space='preserve' font-size='18' font-family='Courier' fill='#AAFF00' >"</tspan><tspan xml:space='preserve' font-size='18' font-family='Courier' fill='#AAFF00' > /</tspan><tspan xml:space='preserve' font-size='18' font-family='Courier' fill='#AAFF00' >&gt;</tspan></text></g></g><g transform='translate(139.41044111016802,260.84274897059396) rotate(90 130.27763167191674 34.90802675585285)'><polygon points="0,34.90802675585285 34.90802675585285,0 34.90802675585285,20.94481605351171 225.64723658798061,20.94481605351171 225.64723658798061,0 260.5552633438335,34.90802675585285 225.64723658798061,69.8160535117057 225.64723658798061,48.87123745819399 34.90802675585285,48.87123745819399 34.90802675585285,69.8160535117057" stroke="#333333" stroke-width="1" fill="#00aaff"/><g ></g></g><g transform='translate(293.3456238987895,195.21942459714188) rotate(0 177.80674138949263 91.80811036789298)'><g  transform='translate(0.0,46.80811036789298)'><text x='2' style='text-anchor: start' y='-2.0'><tspan xml:space='preserve' font-size='14' font-family='Verdana' fill='#FFFFFF' >IE8</tspan><tspan xml:space='preserve' font-size='14' font-family='Verdana' fill='#FFFFFF' >+</tspan><tspan xml:space='preserve' font-size='14' font-family='Verdana' fill='#FFFFFF' >:</tspan></text><text x='2' style='text-anchor: start' y='15.600000000000001'><tspan xml:space='preserve' font-size='14' font-family='Verdana' fill='#FFFFFF' >IE6-7:</tspan></text><text x='2' style='text-anchor: start' y='33.2'><tspan xml:space='preserve' font-size='14' font-family='Verdana' fill='#FFFFFF' >Opera 9</tspan><tspan xml:space='preserve' font-size='14' font-family='Verdana' fill='#FFFFFF' >+</tspan><tspan xml:space='preserve' font-size='14' font-family='Verdana' fill='#FFFFFF' >:</tspan></text><text x='2' style='text-anchor: start' y='50.800000000000004'><tspan xml:space='preserve' font-size='14' font-family='Verdana' fill='#FFFFFF' >Firefox 1-2:</tspan></text><text x='2' style='text-anchor: start' y='68.4'><tspan xml:space='preserve' font-size='14' font-family='Verdana' fill='#FFFFFF' >Firefox 3</tspan><tspan xml:space='preserve' font-size='14' font-family='Verdana' fill='#FFFFFF' >+</tspan><tspan xml:space='preserve' font-size='14' font-family='Verdana' fill='#FFFFFF' >:</tspan></text><text x='2' style='text-anchor: start' y='86.0'><tspan xml:space='preserve' font-size='14' font-family='Verdana' fill='#FFFFFF' >Safari 4</tspan><tspan xml:space='preserve' font-size='14' font-family='Verdana' fill='#FFFFFF' >+</tspan><tspan xml:space='preserve' font-size='14' font-family='Verdana' fill='#FFFFFF' >:</tspan></text><text x='2' style='text-anchor: start' y='103.6'><tspan xml:space='preserve' font-size='14' font-family='Verdana' fill='#FFFFFF' >Chrome 2</tspan><tspan xml:space='preserve' font-size='14' font-family='Verdana' fill='#FFFFFF' >+</tspan><tspan xml:space='preserve' font-size='14' font-family='Verdana' fill='#FFFFFF' >:</tspan></text></g></g><g transform='translate(572.5260676261182,524.488107351975) rotate(0 157.75105140381004 34.90802675585285)'><polygon points="0,34.90802675585285 34.90802675585285,0 34.90802675585285,20.94481605351171 280.5940760517672,20.94481605351171 280.5940760517672,0 315.5021028076201,34.90802675585285 280.5940760517672,69.8160535117057 280.5940760517672,48.87123745819399 34.90802675585285,48.87123745819399 34.90802675585285,69.8160535117057" stroke="#333333" stroke-width="1" fill="#00aaff"/><g  transform='translate(0.0,40.90802675585285)'><text x='157.75105140381004' style='text-anchor: middle' y='-2.0'><tspan xml:space='preserve' font-size='14' font-family='Verdana' fill='#000000' font-weight='bold' >Standard XMLHttpRequest</tspan></text></g></g><g transform='translate(400.3425344618283,215.22027643299353) rotate(0 156.0727729571268 72.27096090438064)'><g  transform='translate(0.0,27.270960904380644)'><text x='2' style='text-anchor: start' y='-2.0'><tspan xml:space='preserve' font-size='14' font-family='Verdana' fill='#FFFFFF' >PostMessageTransport</tspan></text><text x='2' style='text-anchor: start' y='15.600000000000001'><tspan xml:space='preserve' font-size='14' font-family='Verdana' fill='#FFFFFF' >FlashTransport</tspan></text><text x='2' style='text-anchor: start' y='33.2'><tspan xml:space='preserve' font-size='14' font-family='Verdana' fill='#FFFFFF' >PostMessageTransport</tspan></text><text x='2' style='text-anchor: start' y='50.800000000000004'><tspan xml:space='preserve' font-size='14' font-family='Verdana' fill='#FFFFFF' >FrameElementTransport</tspan></text><text x='2' style='text-anchor: start' y='68.4'><tspan xml:space='preserve' font-size='14' font-family='Verdana' fill='#FFFFFF' >PostMessageTransport</tspan></text><text x='2' style='text-anchor: start' y='86.0'><tspan xml:space='preserve' font-size='14' font-family='Verdana' fill='#FFFFFF' >PostMessageTransport</tspan></text><text x='2' style='text-anchor: start' y='103.6'><tspan xml:space='preserve' font-size='14' font-family='Verdana' fill='#FFFFFF' >PostMessageTransport</tspan></text></g></g><g transform='translate(45.63110636974187,109.55348902500032) rotate(0 378.718990621591 32.8135451505017)'><g  transform='translate(0.0,40.8135451505017)'><text x='2' style='text-anchor: start' y='-3.0'><tspan xml:space='preserve' font-size='18' font-family='Courier' fill='#AAFF00' >&lt;</tspan><tspan xml:space='preserve' font-size='18' font-family='Courier' fill='#AAFF00' >script src=</tspan><tspan xml:space='preserve' font-size='18' font-family='Courier' fill='#AAFF00' >"</tspan><tspan xml:space='preserve' font-size='18' font-family='Courier' fill='#AAFF00' >http://my-domain.com/widget.js</tspan><tspan xml:space='preserve' font-size='18' font-family='Courier' fill='#AAFF00' >&gt;</tspan><tspan xml:space='preserve' font-size='18' font-family='Courier' fill='#AAFF00' >&lt;</tspan><tspan xml:space='preserve' font-size='18' font-family='Courier' fill='#AAFF00' >/script</tspan><tspan xml:space='preserve' font-size='18' font-family='Courier' fill='#AAFF00' >&gt;</tspan></text></g></g><defs>    <ellipse cx="9.315" cy="80.208" id="SVGIDserver_web_3_" rx="2.167" ry="3.679" transform="matrix(0.8561 -0.5167 0.5167 0.8561 -40.1069 16.3526)"/>    <clipPath id="SVGIDserver_web_4_">        <use overflow="visible" xlink:actuate="onLoad" xlink:href="#SVGIDserver_web_3_" xlink:show="embed" xlink:type="simple" xmlns:xlink="http://www.w3.org/1999/xlink"/>    </clipPath>    <linearGradient gradientUnits="userSpaceOnUse" id="SVGIDserver_web_1_" x1="10.5635" x2="50.738" xlink:actuate="onLoad" xlink:show="other" xlink:type="simple" xmlns:xlink="http://www.w3.org/1999/xlink" y1="31.0234" y2="7.2703">		<stop offset="0" style="stop-color:#464646"/>		<stop offset="1" style="stop-color:#CCCCCC"/>		<a:midPointStop offset="0" style="stop-color:#464646"/>		<a:midPointStop offset="0.5" style="stop-color:#464646"/>		<a:midPointStop offset="1" style="stop-color:#CCCCCC"/>	</linearGradient><linearGradient gradientUnits="userSpaceOnUse" id="SVGIDserver_web_2_" x1="23.0298" x2="56.8667" xlink:actuate="onLoad" xlink:show="other" xlink:type="simple" xmlns:xlink="http://www.w3.org/1999/xlink" y1="69.2744" y2="49.2683">		<stop offset="0" style="stop-color:#353535"/>		<stop offset="1" style="stop-color:#949494"/>		<a:midPointStop offset="0" style="stop-color:#353535"/>		<a:midPointStop offset="0.5" style="stop-color:#353535"/>		<a:midPointStop offset="1" style="stop-color:#949494"/>	</linearGradient><linearGradient gradientUnits="userSpaceOnUse" id="SVGIDserver_web_5_" x1="0" x2="26.3257" xlink:actuate="onLoad" xlink:show="other" xlink:type="simple" xmlns:xlink="http://www.w3.org/1999/xlink" y1="60.834" y2="60.834">		<stop offset="0" style="stop-color:#565656"/>		<stop offset="0.1023" style="stop-color:#696969"/>		<stop offset="0.2979" style="stop-color:#868686"/>		<stop offset="0.4908" style="stop-color:#9C9C9C"/>		<stop offset="0.6779" style="stop-color:#A9A9A9"/>		<stop offset="0.8528" style="stop-color:#ADADAD"/>		<stop offset="1" style="stop-color:#535353"/>		<a:midPointStop offset="0" style="stop-color:#565656"/>		<a:midPointStop offset="0.3067" style="stop-color:#565656"/>		<a:midPointStop offset="0.8528" style="stop-color:#ADADAD"/>		<a:midPointStop offset="0.5" style="stop-color:#ADADAD"/>		<a:midPointStop offset="1" style="stop-color:#535353"/>	</linearGradient><symbol id="com.gliffy.newnetwork.business.Server_Web" viewBox="0 0 64 100" preserveAspectRatio="none"><g id="Layer_0">	<rect fill="none" height="100" width="64"/>	<path d="M26.326,69.194V35.72c-5.584,3.229-26.147-7.938-26.325-12.999C0,22.71,0,22.681,0,22.658v62.89h0.021   c0.462,5.109,20.761,16.092,26.305,12.886V69.194z"/></g><g id="Layer_1">	<rect fill="none" height="100" width="64"/>		<path d="M64,14.038c0,0-33.514,19.276-37.674,21.682C20.899,38.857,0,29.346,0,22.658   C4.341,20.148,39.186,0,39.186,0L64,14.038z" fill="url(#SVGIDserver_web_1_)"/>		<polygon fill="url(#SVGIDserver_web_2_)" points="26.229,98.494 64,76.657 64,14.038 26.326,35.72  "/>	<g>		<g>			<rect clip-path="url(#SVGIDserver_web_4_)" fill="#C4C6C8" height="7.538" width="5.845" x="6.393" y="76.438"/>			<path clip-path="url(#SVGIDserver_web_4_)" d="M11.583,78.842c0.908,1.506,0.63,3.341-0.622,4.099     c-1.252,0.758-3.004,0.147-3.912-1.363c-0.908-1.507-0.631-3.342,0.622-4.1C8.923,76.72,10.675,77.33,11.583,78.842z" fill="#C4C6C8"/>			<path clip-path="url(#SVGIDserver_web_4_)" d="M11.545,78.861c0.895,1.486,0.618,3.288-0.613,4.032     C9.7,83.64,7.977,83.037,7.087,81.556C6.191,80.07,6.469,78.27,7.7,77.523C8.931,76.779,10.654,77.381,11.545,78.861z" fill="#C5C7C9"/>			<path clip-path="url(#SVGIDserver_web_4_)" d="M11.507,78.883c0.878,1.461,0.609,3.232-0.601,3.965     c-1.21,0.732-2.904,0.143-3.782-1.313c-0.878-1.46-0.605-3.231,0.605-3.964S10.629,77.427,11.507,78.883z" fill="#C6C8CA"/>			<path clip-path="url(#SVGIDserver_web_4_)" d="M11.469,78.908c0.862,1.431,0.597,3.173-0.592,3.894     c-1.189,0.72-2.853,0.139-3.715-1.293c-0.861-1.431-0.597-3.173,0.593-3.893C8.944,76.897,10.608,77.478,11.469,78.908z" fill="#C7C9CB"/>							<ellipse clip-path="url(#SVGIDserver_web_4_)" cx="9.316" cy="80.209" fill="#C8CACC" rx="2.471" ry="2.972" transform="matrix(0.8565 -0.5162 0.5162 0.8565 -40.0686 16.3227)"/>			<path clip-path="url(#SVGIDserver_web_4_)" d="M11.394,78.955c0.828,1.38,0.571,3.063-0.572,3.754     c-1.147,0.694-2.752,0.135-3.58-1.246c-0.833-1.38-0.581-3.063,0.567-3.754C8.957,77.015,10.562,77.575,11.394,78.955z" fill="#C9CBCD"/>			<path clip-path="url(#SVGIDserver_web_4_)" d="M11.352,78.979c0.815,1.355,0.567,3.005-0.559,3.684     c-1.126,0.682-2.698,0.134-3.513-1.226c-0.819-1.354-0.567-3.005,0.559-3.682C8.965,77.074,10.537,77.62,11.352,78.979z" fill="#CACCCE"/>			<path clip-path="url(#SVGIDserver_web_4_)" d="M11.314,79.001c0.803,1.33,0.555,2.95-0.551,3.615     c-1.101,0.669-2.647,0.131-3.446-1.199c-0.802-1.33-0.555-2.95,0.551-3.615C8.969,77.132,10.515,77.672,11.314,79.001z" fill="#CBCDCF"/>			<path clip-path="url(#SVGIDserver_web_4_)" d="M11.276,79.026c0.786,1.305,0.546,2.892-0.538,3.543     c-1.084,0.657-2.597,0.127-3.383-1.178C6.57,80.087,6.813,78.5,7.894,77.848C8.978,77.191,10.49,77.722,11.276,79.026z" fill="#CCCED0"/>			<path clip-path="url(#SVGIDserver_web_4_)" d="M11.239,79.048c0.769,1.278,0.533,2.837-0.53,3.476     c-1.063,0.644-2.547,0.127-3.315-1.152c-0.769-1.28-0.534-2.837,0.529-3.478C8.981,77.25,10.47,77.769,11.239,79.048z" fill="#CDCFD1"/>			<path clip-path="url(#SVGIDserver_web_4_)" d="M11.2,79.072c0.752,1.25,0.521,2.778-0.521,3.404     c-1.038,0.632-2.492,0.123-3.249-1.131c-0.752-1.25-0.521-2.778,0.517-3.405C8.99,77.309,10.444,77.818,11.2,79.072z" fill="#CED0D1"/>			<path clip-path="url(#SVGIDserver_web_4_)" d="M11.163,79.094c0.735,1.229,0.508,2.723-0.508,3.338     c-1.021,0.614-2.446,0.122-3.185-1.107c-0.74-1.229-0.509-2.723,0.508-3.338C8.999,77.373,10.423,77.865,11.163,79.094z" fill="#CFD1D2"/>			<path clip-path="url(#SVGIDserver_web_4_)" d="M11.125,79.119c0.723,1.199,0.5,2.664-0.5,3.266     c-0.997,0.602-2.392,0.118-3.114-1.086c-0.727-1.199-0.504-2.664,0.496-3.266C9.002,77.432,10.398,77.915,11.125,79.119z" fill="#D0D2D3"/>			<path clip-path="url(#SVGIDserver_web_4_)" d="M11.083,79.141c0.709,1.178,0.491,2.608-0.484,3.198     c-0.979,0.589-2.344,0.113-3.05-1.061c-0.71-1.179-0.492-2.61,0.483-3.199C9.011,77.49,10.377,77.966,11.083,79.141z" fill="#D1D3D4"/>							<ellipse clip-path="url(#SVGIDserver_web_4_)" cx="9.316" cy="80.209" fill="#D2D4D5" rx="2.02" ry="2.431" transform="matrix(0.8561 -0.5169 0.5169 0.8561 -40.1172 16.3604)"/>			<path clip-path="url(#SVGIDserver_web_4_)" d="M11.007,79.187c0.676,1.128,0.471,2.496-0.466,3.06     c-0.933,0.563-2.24,0.109-2.917-1.015c-0.677-1.128-0.471-2.495,0.466-3.059C9.024,77.607,10.331,78.062,11.007,79.187z" fill="#D3D5D6"/>			<path clip-path="url(#SVGIDserver_web_4_)" d="M10.969,79.212c0.66,1.099,0.458,2.437-0.454,2.987     c-0.912,0.552-2.189,0.109-2.853-0.993c-0.66-1.098-0.458-2.437,0.454-2.988C9.032,77.667,10.306,78.108,10.969,79.212z" fill="#D4D6D7"/>			<path clip-path="url(#SVGIDserver_web_4_)" d="M10.932,79.232c0.647,1.073,0.445,2.382-0.445,2.921     c-0.891,0.538-2.139,0.105-2.786-0.968s-0.446-2.383,0.445-2.921C9.036,77.726,10.284,78.16,10.932,79.232z" fill="#D5D7D8"/>							<ellipse clip-path="url(#SVGIDserver_web_4_)" cx="9.316" cy="80.209" fill="#D6D8D9" rx="1.842" ry="2.214" transform="matrix(0.8564 -0.5163 0.5163 0.8564 -40.0718 16.3255)"/>			<path clip-path="url(#SVGIDserver_web_4_)" d="M10.855,79.278c0.614,1.027,0.425,2.269-0.424,2.783     c-0.849,0.513-2.038,0.101-2.652-0.923c-0.618-1.026-0.429-2.269,0.42-2.781C9.049,77.844,10.238,78.257,10.855,79.278z" fill="#D7D9DA"/>			<path clip-path="url(#SVGIDserver_web_4_)" d="M10.813,79.304c0.601,0.998,0.416,2.21-0.412,2.711     c-0.828,0.501-1.983,0.097-2.584-0.901c-0.6-0.996-0.416-2.209,0.412-2.71S10.213,78.307,10.813,79.304z" fill="#D8DADB"/>			<path clip-path="url(#SVGIDserver_web_4_)" d="M10.776,79.33c0.584,0.968,0.407,2.15-0.399,2.639s-1.937,0.097-2.521-0.88     c-0.583-0.968-0.404-2.15,0.403-2.639S10.192,78.354,10.776,79.33z" fill="#D9DBDC"/>							<ellipse clip-path="url(#SVGIDserver_web_4_)" cx="9.316" cy="80.208" fill="#DADCDD" rx="1.662" ry="2" transform="matrix(0.8561 -0.5168 0.5168 0.8561 -40.1149 16.3589)"/>			<path clip-path="url(#SVGIDserver_web_4_)" d="M10.7,79.371c0.555,0.922,0.383,2.046-0.382,2.505     c-0.764,0.463-1.832,0.088-2.387-0.83c-0.555-0.921-0.382-2.045,0.383-2.503C9.079,78.079,10.146,78.454,10.7,79.371z" fill="#DBDDDE"/>			<path clip-path="url(#SVGIDserver_web_4_)" d="M10.663,79.396c0.538,0.893,0.37,1.987-0.37,2.433     c-0.743,0.45-1.781,0.089-2.323-0.809c-0.538-0.892-0.374-1.985,0.37-2.432C9.083,78.139,10.125,78.5,10.663,79.396z" fill="#DCDEDF"/>			<path clip-path="url(#SVGIDserver_web_4_)" d="M10.621,79.422c0.525,0.867,0.366,1.928-0.357,2.361     c-0.723,0.438-1.731,0.084-2.256-0.787c-0.521-0.867-0.361-1.928,0.362-2.361C9.091,78.197,10.099,78.551,10.621,79.422z" fill="#DDDFE0"/>			<path clip-path="url(#SVGIDserver_web_4_)" d="M10.583,79.443c0.508,0.846,0.353,1.872-0.349,2.293     c-0.697,0.422-1.681,0.084-2.185-0.761c-0.508-0.847-0.353-1.873,0.349-2.295C9.095,78.261,10.074,78.597,10.583,79.443z" fill="#DEE0E1"/>			<path clip-path="url(#SVGIDserver_web_4_)" d="M10.544,79.464c0.496,0.821,0.341,1.818-0.335,2.226     c-0.681,0.409-1.63,0.081-2.122-0.735c-0.492-0.821-0.341-1.818,0.336-2.227C9.104,78.319,10.054,78.647,10.544,79.464z" fill="#DFE1E2"/>							<ellipse clip-path="url(#SVGIDserver_web_4_)" cx="9.316" cy="80.209" fill="#E0E2E3" rx="1.392" ry="1.675" transform="matrix(0.8559 -0.5171 0.5171 0.8559 -40.1318 16.3718)"/>			<path clip-path="url(#SVGIDserver_web_4_)" d="M10.47,79.515c0.462,0.766,0.319,1.7-0.32,2.083     c-0.635,0.384-1.525,0.076-1.988-0.693C7.7,80.137,7.843,79.203,8.477,78.82C9.116,78.438,10.007,78.745,10.47,79.515z" fill="#E2E3E4"/>							<ellipse clip-path="url(#SVGIDserver_web_4_)" cx="9.316" cy="80.209" fill="#E3E3E4" rx="1.303" ry="1.567" transform="matrix(0.8562 -0.5167 0.5167 0.8562 -40.1042 16.3502)"/>			<path clip-path="url(#SVGIDserver_web_4_)" d="M10.394,79.557c0.428,0.72,0.298,1.591-0.299,1.948     c-0.593,0.358-1.424,0.072-1.857-0.644c-0.429-0.72-0.299-1.591,0.298-1.948C9.128,78.556,9.961,78.842,10.394,79.557z" fill="#E4E4E5"/>			<path clip-path="url(#SVGIDserver_web_4_)" d="M10.352,79.582c0.417,0.69,0.29,1.531-0.282,1.877     c-0.575,0.345-1.378,0.067-1.794-0.623c-0.412-0.69-0.286-1.532,0.286-1.877C9.137,78.614,9.94,78.892,10.352,79.582z" fill="#E5E5E6"/>			<path clip-path="url(#SVGIDserver_web_4_)" d="M10.313,79.607c0.404,0.665,0.278,1.473-0.273,1.805     c-0.55,0.333-1.324,0.063-1.723-0.602c-0.403-0.665-0.277-1.473,0.273-1.806C9.142,78.673,9.915,78.942,10.313,79.607z" fill="#E6E6E7"/>							<ellipse clip-path="url(#SVGIDserver_web_4_)" cx="9.316" cy="80.209" fill="#E7E7E8" rx="1.122" ry="1.35" transform="matrix(0.8557 -0.5174 0.5174 0.8557 -40.1569 16.3909)"/>			<path clip-path="url(#SVGIDserver_web_4_)" d="M10.238,79.648c0.37,0.615,0.256,1.364-0.252,1.671     c-0.513,0.308-1.223,0.06-1.593-0.551c-0.37-0.614-0.257-1.363,0.252-1.671C9.158,78.79,9.869,79.039,10.238,79.648z" fill="#E8E8E9"/>							<ellipse clip-path="url(#SVGIDserver_web_4_)" cx="9.316" cy="80.209" fill="#E9E9EA" rx="1.033" ry="1.243" transform="matrix(0.856 -0.517 0.517 0.856 -40.1235 16.3652)"/>			<path clip-path="url(#SVGIDserver_web_4_)" d="M10.163,79.7c0.336,0.56,0.236,1.245-0.235,1.527     c-0.467,0.281-1.118,0.055-1.458-0.51c-0.336-0.56-0.236-1.245,0.235-1.527C9.171,78.908,9.822,79.136,10.163,79.7z" fill="#EAEAEB"/>			<path clip-path="url(#SVGIDserver_web_4_)" d="M10.125,79.721c0.319,0.539,0.222,1.19-0.223,1.461     c-0.445,0.269-1.071,0.05-1.395-0.484c-0.323-0.539-0.223-1.191,0.222-1.46C9.175,78.967,9.801,79.187,10.125,79.721z" fill="#EBEBEC"/>							<ellipse clip-path="url(#SVGIDserver_web_4_)" cx="9.314" cy="80.209" fill="#ECECED" rx="0.898" ry="1.081" transform="matrix(0.8568 -0.5156 0.5156 0.8568 -40.0204 16.2843)"/>			<path clip-path="url(#SVGIDserver_web_4_)" d="M10.044,79.767c0.295,0.488,0.207,1.078-0.197,1.322     c-0.403,0.243-0.971,0.046-1.261-0.438c-0.294-0.488-0.201-1.077,0.202-1.32C9.192,79.085,9.755,79.283,10.044,79.767z" fill="#EDEDEE"/>			<path clip-path="url(#SVGIDserver_web_4_)" d="M10.007,79.792c0.277,0.459,0.193,1.019-0.189,1.25     c-0.382,0.232-0.916,0.047-1.193-0.417c-0.277-0.458-0.193-1.018,0.189-1.25C9.196,79.145,9.729,79.33,10.007,79.792z" fill="#EEEEEF"/>							<ellipse clip-path="url(#SVGIDserver_web_4_)" cx="9.316" cy="80.209" fill="#EFEFF0" rx="0.764" ry="0.918" transform="matrix(0.8555 -0.5177 0.5177 0.8555 -40.1813 16.41)"/>			<path clip-path="url(#SVGIDserver_web_4_)" d="M9.932,79.838c0.244,0.408,0.167,0.905-0.168,1.111     c-0.34,0.207-0.815,0.039-1.063-0.37c-0.248-0.408-0.172-0.904,0.168-1.111C9.209,79.262,9.684,79.431,9.932,79.838z" fill="#F0F0F1"/>			<path clip-path="url(#SVGIDserver_web_4_)" d="M9.894,79.859c0.231,0.387,0.16,0.851-0.16,1.045     c-0.32,0.193-0.765,0.037-0.996-0.346c-0.231-0.388-0.16-0.851,0.16-1.044C9.217,79.321,9.663,79.477,9.894,79.859z" fill="#F1F1F2"/>			<path clip-path="url(#SVGIDserver_web_4_)" d="M9.856,79.885c0.214,0.357,0.147,0.791-0.151,0.973     c-0.294,0.181-0.71,0.033-0.929-0.325c-0.214-0.357-0.147-0.791,0.151-0.972C9.221,79.38,9.637,79.527,9.856,79.885z" fill="#F2F2F3"/>			<path clip-path="url(#SVGIDserver_web_4_)" d="M9.813,79.906c0.202,0.332,0.139,0.736-0.134,0.904     c-0.278,0.169-0.665,0.034-0.862-0.298c-0.202-0.333-0.139-0.737,0.134-0.905C9.229,79.439,9.616,79.573,9.813,79.906z" fill="#F3F3F4"/>							<ellipse clip-path="url(#SVGIDserver_web_4_)" cx="9.316" cy="80.209" fill="#F4F4F5" rx="0.538" ry="0.648" transform="matrix(0.8561 -0.5168 0.5168 0.8561 -40.1141 16.3578)"/>			<path clip-path="url(#SVGIDserver_web_4_)" d="M9.738,79.952c0.168,0.281,0.118,0.623-0.118,0.766     c-0.231,0.144-0.559,0.025-0.727-0.252c-0.168-0.282-0.118-0.623,0.113-0.766C9.243,79.557,9.57,79.675,9.738,79.952z" fill="#F5F5F6"/>			<path clip-path="url(#SVGIDserver_web_4_)" d="M9.7,79.978c0.156,0.252,0.106,0.563-0.104,0.694     c-0.214,0.131-0.508,0.025-0.664-0.231c-0.155-0.252-0.105-0.564,0.105-0.694C9.25,79.616,9.544,79.721,9.7,79.978z" fill="#F6F6F6"/>							<ellipse clip-path="url(#SVGIDserver_web_4_)" cx="9.316" cy="80.209" fill="#F7F7F7" rx="0.406" ry="0.485" transform="matrix(0.8548 -0.5189 0.5189 0.8548 -40.2695 16.4785)"/>			<path clip-path="url(#SVGIDserver_web_4_)" d="M9.625,80.024c0.122,0.205,0.084,0.454-0.088,0.555     c-0.168,0.105-0.404,0.021-0.53-0.185c-0.122-0.206-0.083-0.455,0.084-0.557C9.263,79.733,9.499,79.818,9.625,80.024z" fill="#F8F8F8"/>			<path clip-path="url(#SVGIDserver_web_4_)" d="M9.587,80.045c0.105,0.181,0.071,0.399-0.076,0.487     c-0.151,0.089-0.357,0.018-0.462-0.159c-0.109-0.181-0.076-0.399,0.071-0.488C9.268,79.797,9.478,79.868,9.587,80.045z" fill="#F9F9F9"/>							<ellipse clip-path="url(#SVGIDserver_web_4_)" cx="9.316" cy="80.209" fill="#FAFAFA" rx="0.268" ry="0.324" transform="matrix(0.8551 -0.5184 0.5184 0.8551 -40.2296 16.4475)"/>			<path clip-path="url(#SVGIDserver_web_4_)" d="M9.507,80.096c0.08,0.126,0.055,0.281-0.05,0.345     c-0.109,0.063-0.257,0.013-0.332-0.118c-0.075-0.126-0.055-0.282,0.051-0.345C9.285,79.915,9.431,79.965,9.507,80.096z" fill="#FBFBFB"/>							<ellipse clip-path="url(#SVGIDserver_web_4_)" cx="9.316" cy="80.209" fill="#FCFCFC" rx="0.179" ry="0.216" transform="matrix(0.8571 -0.5151 0.5151 0.8571 -39.9847 16.2578)"/>			<path clip-path="url(#SVGIDserver_web_4_)" d="M9.431,80.137c0.046,0.081,0.03,0.174-0.033,0.211     C9.335,80.386,9.247,80.356,9.2,80.28c-0.045-0.079-0.033-0.172,0.034-0.21C9.297,80.031,9.385,80.062,9.431,80.137z" fill="#FDFDFD"/>							<ellipse clip-path="url(#SVGIDserver_web_4_)" cx="9.316" cy="80.208" fill="#FEFEFE" rx="0.09" ry="0.109" transform="matrix(0.8584 -0.5129 0.5129 0.8584 -39.8208 16.1322)"/>			<path clip-path="url(#SVGIDserver_web_4_)" d="M9.356,80.188c0.013,0.025,0.008,0.054-0.013,0.066     c-0.021,0.013-0.05,0-0.067-0.025c-0.013-0.024-0.008-0.055,0.012-0.067C9.31,80.149,9.339,80.162,9.356,80.188z" fill="#FFFFFF"/>		</g>	</g>		<path d="M1.379,61.171c-0.021-1.413,0-0.951,0-2.907c0.652,1.625,17.672,13.615,24.946,10.331v-9.126   c-8.189,2.862-24.051-8.798-24.946-10.21c-0.021-1.412,0-0.95,0-2.906c0.652,1.625,17.672,13.615,24.946,10.331v-9.126   c-8.189,2.862-24.051-8.799-24.946-10.21c-0.021-1.412,0-0.95,0-2.906c0.652,1.625,17.672,13.615,24.946,10.33V35.72   c-5.584,3.229-26.147-7.938-26.325-12.999C0,22.71,0,22.681,0,22.658v62.89h0.021c0.462,5.109,20.761,16.092,26.305,12.886V71.38   C18.137,74.242,2.275,62.582,1.379,61.171z M9.244,84.817c-2.15-1.243-3.881-4.246-3.875-6.713c0.007-2.473,1.75-3.468,3.9-2.226   c2.142,1.238,3.874,4.244,3.866,6.716C13.129,85.062,11.386,86.057,9.244,84.817z" fill="url(#SVGIDserver_web_5_)"/>	<g>		<path d="M56.471,42.069c5.342,3.053,5.402,13.028,0.132,22.281c-5.27,9.257-13.873,14.287-19.215,11.235    c-5.343-3.053-5.401-13.028-0.131-22.282C42.526,44.048,51.127,39.018,56.471,42.069z" fill="#CCCCCC"/>		<path d="M37.911,51.756l1.045,0.319l-0.279,1.616l-0.06,1.058l-0.707,2.515l0.522,1.987l0.431,1.784l0.581,0.996    l0.189-1.203l0.831,0.851l0.404,0.415l1.735,0.331l0.998,0.266l3.012-0.523l0.594,0.728l0.942-0.489l1.27-0.205v1.156    l-0.969,1.471l0.076,1.404l1.13,1.73l1.087-0.02l0.27,0.638l-1.243,4.07c0,0,2.274-2.021,3.168-3.105    c0.895-1.085,2.345-4.477,2.345-4.477l1.581-3.177l0.429-1.24l0.487-1.823l0.493-1.652l-1.193,0.512l-1.001-0.519l-2.115,0.328    l-0.419-0.596l-2.506,2.315l-1.398,1.592l-0.891,0.128c0,0-2.289,0.701-2.226,0.51c0.064-0.191-0.492-1.665-0.492-1.665    l-0.78-0.056l-0.509,0.766l-0.89,0.573l-0.646-1.883l0.469-1.197l2.776-1.943l0.202,0.528l1.439,0.227l-0.297-1.948l-0.04-0.727    l0.731-0.858l0.007-1.188l1.273-3.164l0.371-0.049l0.725-1.256l-1.08-0.289l1.652-1.705h-2.475l-1.219-0.161l0.116-0.479h-0.832    l1.469-0.551h1.882l-0.156-1.235l-2.13-0.781C48.093,42.404,44.127,43.616,37.911,51.756z" fill="#808080"/>	</g></g></symbol></defs><g transform='translate(892.1729200274268,444.41853295516984) rotate(0 53.8512406640496 83.33311660494729)'><use xlink:href='#com.gliffy.newnetwork.business.Server_Web' width='107.7024813280992' height='166.66623320989459'  fill="#aaff00"/><g  transform='translate(0.0,185.66623320989459)'><text x='53.8512406640496' style='text-anchor: middle' y='-2.0'><tspan xml:space='preserve' font-size='14' font-family='Verdana' fill='#AAFF00' font-weight='bold' >my-domain.com</tspan></text></g></g><g transform='translate(19.72404971468785,20.73393654830375) rotate(0 403.4845285376953 16.5282025223031)'><rect width="806.9690570753907" height="33.0564050446062" stroke="#333333" stroke-width="2" fill="#ffffff"/><g  transform='translate(0.0,24.5282025223031)'><text x='2' style='text-anchor: start' y='-3.0'><tspan xml:space='preserve' font-size='18' font-family='Verdana' fill='#000000' font-weight='bold' >  http://your-domain.com</tspan></text></g></g></svg>